<svg version="1.1" xmlns="http://www.w3.org/2000/svg" xmlns:xlink="http://www.w3.org/1999/xlink" width="24" height="24" viewBox="0,0,256,256"><g fill="none" fill-rule="nonzero" stroke="#01bb0a" stroke-width="2" stroke-linecap="round" stroke-linejoin="round" stroke-miterlimit="10" stroke-dasharray="" stroke-dashoffset="0" font-family="none" font-weight="none" font-size="none" text-anchor="none" style="mix-blend-mode: normal"><g transform="scale(10.66667,10.66667)"><path d="M2,7l8.1649,5.7154c0.6612,0.4629 0.9918,0.6943 1.3514,0.7839c0.3176,0.0792 0.6498,0.0792 0.9674,0c0.3596,-0.0896 0.6902,-0.321 1.3514,-0.7839l8.1649,-5.7154M6.8,20h10.4c1.6802,0 2.5202,0 3.162,-0.327c0.5645,-0.2876 1.0234,-0.7465 1.311,-1.311c0.327,-0.6418 0.327,-1.4818 0.327,-3.162v-6.4c0,-1.68016 0,-2.52024 -0.327,-3.16197c-0.2876,-0.56449 -0.7465,-1.02343 -1.311,-1.31105c-0.6418,-0.32698 -1.4818,-0.32698 -3.162,-0.32698h-10.4c-1.68016,0 -2.52024,0 -3.16197,0.32698c-0.56449,0.28762 -1.02343,0.74656 -1.31105,1.31105c-0.32698,0.64173 -0.32698,1.48181 -0.32698,3.16197v6.4c0,1.6802 0,2.5202 0.32698,3.162c0.28762,0.5645 0.74656,1.0234 1.31105,1.311c0.64173,0.327 1.48181,0.327 3.16197,0.327z"></path></g></g></svg>